<svg width="1024" height="1024" viewBox="0 0 1024 1024" fill="none" xmlns="http://www.w3.org/2000/svg">
<path d="M855.624 429.742C856.798 459.082 855.045 488.359 850.35 517.098C761.692 515.223 674.263 546.809 608.618 612.468C543.055 678.045 511.485 765.347 513.295 853.892C484.551 858.566 455.272 860.299 425.93 859.104C421.384 745.479 460.739 632.79 544.824 548.687C629.01 464.483 741.86 425.109 855.624 429.742Z" fill="black"/>
<path d="M160.504 593.735C159.316 564.395 161.057 535.116 165.738 506.374C254.34 508.207 341.702 476.619 407.306 411.001C472.91 345.384 504.478 258.015 502.626 169.413C531.367 164.726 560.645 162.98 589.986 164.161C594.587 277.855 555.236 390.628 471.1 474.782C386.965 558.936 274.2 598.312 160.504 593.735Z" fill="black"/>
<path d="M202.881 742.684C184.16 756.843 157.3 753.239 145.081 733.198C96.7055 653.861 75.4569 560.455 85.3079 467.272C96.6548 359.937 148.414 260.941 230.082 190.373C311.75 119.806 417.207 82.9536 525.052 87.2962C632.897 91.6388 735.05 136.851 810.78 213.756C886.509 290.662 930.142 393.5 932.822 501.399C935.502 609.298 897.029 714.175 825.211 794.745C753.393 875.316 653.611 925.544 546.114 935.235C452.791 943.649 359.723 920.963 281.14 871.371C261.291 858.844 258.101 831.932 272.547 813.432C286.992 794.932 313.59 791.907 333.747 803.933C395.049 840.51 466.671 857.053 538.482 850.579C624.479 842.825 704.305 802.643 761.759 738.187C819.214 673.73 849.992 589.829 847.848 503.509C845.704 417.19 810.798 334.92 750.214 273.395C689.631 211.871 607.909 175.701 521.632 172.227C435.356 168.753 350.99 198.235 285.656 254.689C220.322 311.143 178.914 390.34 169.837 476.208C162.257 547.91 177.694 619.778 213.321 681.637C225.036 701.977 221.601 728.525 202.881 742.684Z" fill="black"/>
</svg>
